<?xml version="1.0" standalone="no"?>
<svg xmlns:xlink="http://www.w3.org/1999/xlink" id="wave" style="transform:rotate(0deg); transition: 0.3s" viewBox="0 0 1440 210" version="1.1" xmlns="http://www.w3.org/2000/svg"><defs><linearGradient id="sw-gradient-0" x1="0" x2="0" y1="1" y2="0"><stop stop-color="rgba(243, 106, 62, 1)" offset="0%"/><stop stop-color="rgba(255, 179, 11, 1)" offset="100%"/></linearGradient></defs><path style="transform:translate(0, 0px); opacity:1" fill="url(#sw-gradient-0)" d="M0,126L102.9,63L205.7,0L308.6,21L411.4,84L514.3,126L617.1,63L720,126L822.9,189L925.7,126L1028.6,105L1131.4,147L1234.3,63L1337.1,0L1440,84L1542.9,105L1645.7,105L1748.6,21L1851.4,63L1954.3,63L2057.1,0L2160,0L2262.9,126L2365.7,189L2468.6,84L2468.6,210L2365.7,210L2262.9,210L2160,210L2057.1,210L1954.3,210L1851.4,210L1748.6,210L1645.7,210L1542.9,210L1440,210L1337.1,210L1234.3,210L1131.4,210L1028.6,210L925.7,210L822.9,210L720,210L617.1,210L514.3,210L411.4,210L308.6,210L205.7,210L102.9,210L0,210Z"/><defs><linearGradient id="sw-gradient-1" x1="0" x2="0" y1="1" y2="0"><stop stop-color="rgba(243, 106, 62, 1)" offset="0%"/><stop stop-color="rgba(255, 179, 11, 1)" offset="100%"/></linearGradient></defs><path style="transform:translate(0, 50px); opacity:0.9" fill="url(#sw-gradient-1)" d="M0,147L102.9,42L205.7,105L308.6,126L411.4,21L514.3,84L617.1,189L720,0L822.9,126L925.7,21L1028.6,63L1131.4,84L1234.3,126L1337.1,105L1440,147L1542.9,168L1645.7,63L1748.6,105L1851.4,42L1954.3,126L2057.1,105L2160,147L2262.9,21L2365.7,189L2468.6,0L2468.6,210L2365.7,210L2262.9,210L2160,210L2057.1,210L1954.3,210L1851.4,210L1748.6,210L1645.7,210L1542.9,210L1440,210L1337.1,210L1234.3,210L1131.4,210L1028.6,210L925.7,210L822.9,210L720,210L617.1,210L514.3,210L411.4,210L308.6,210L205.7,210L102.9,210L0,210Z"/><defs><linearGradient id="sw-gradient-2" x1="0" x2="0" y1="1" y2="0"><stop stop-color="rgba(243, 106, 62, 1)" offset="0%"/><stop stop-color="rgba(255, 179, 11, 1)" offset="100%"/></linearGradient></defs><path style="transform:translate(0, 100px); opacity:0.8" fill="url(#sw-gradient-2)" d="M0,0L102.9,0L205.7,189L308.6,0L411.4,84L514.3,42L617.1,105L720,0L822.9,42L925.7,126L1028.6,168L1131.4,21L1234.3,84L1337.1,84L1440,0L1542.9,63L1645.7,168L1748.6,84L1851.4,63L1954.3,63L2057.1,105L2160,21L2262.9,21L2365.7,0L2468.6,63L2468.6,210L2365.7,210L2262.9,210L2160,210L2057.1,210L1954.3,210L1851.4,210L1748.6,210L1645.7,210L1542.9,210L1440,210L1337.1,210L1234.3,210L1131.4,210L1028.6,210L925.7,210L822.9,210L720,210L617.1,210L514.3,210L411.4,210L308.6,210L205.7,210L102.9,210L0,210Z"/><defs><linearGradient id="sw-gradient-3" x1="0" x2="0" y1="1" y2="0"><stop stop-color="rgba(243, 106, 62, 1)" offset="0%"/><stop stop-color="rgba(255, 179, 11, 1)" offset="100%"/></linearGradient></defs><path style="transform:translate(0, 150px); opacity:0.7" fill="url(#sw-gradient-3)" d="M0,147L102.9,168L205.7,42L308.6,0L411.4,21L514.3,84L617.1,21L720,147L822.9,126L925.7,21L1028.6,21L1131.4,0L1234.3,63L1337.1,42L1440,105L1542.9,21L1645.7,126L1748.6,42L1851.4,21L1954.3,189L2057.1,105L2160,105L2262.9,168L2365.7,147L2468.6,147L2468.6,210L2365.7,210L2262.9,210L2160,210L2057.1,210L1954.3,210L1851.4,210L1748.6,210L1645.7,210L1542.9,210L1440,210L1337.1,210L1234.3,210L1131.4,210L1028.6,210L925.7,210L822.9,210L720,210L617.1,210L514.3,210L411.4,210L308.6,210L205.7,210L102.9,210L0,210Z"/></svg>